<svg xmlns="http://www.w3.org/2000/svg"  viewBox="0 0 48 48" width="48px" height="48px"><path fill="#f5bc00" d="M36,40h1c1.172-1.172,1.828-1.828,3-3v-5h-4V40z"/><path fill="#f5bc00" d="M36,16h1c1.172-1.172,1.828-1.828,3-3V8h-4V16z"/><path fill="#f5bc00" d="M36,28h1c1.172-1.172,1.828-1.828,3-3v-5h-4V28z"/><rect width="29" height="38" x="8" y="5" fill="#6c19ff"/><rect width="1.917" height="8" x="35.083" y="8" fill="#2100c4"/><rect width="1.917" height="8" x="35.083" y="20" fill="#2100c4"/><rect width="1.917" height="8" x="35.083" y="32" fill="#2100c4"/><path fill="#7debf5" d="M26.133,24.003C26.133,24.003,26.133,24.003,26.133,24.003l-8.267-0.006 c-0.552,0-0.999-0.448-0.999-1.001c0-0.552,0.448-0.999,1-0.999c0,0,0,0,0.001,0l8.266,0.006c0.552,0,0.999,0.448,0.999,1.001 C27.133,23.556,26.685,24.003,26.133,24.003z"/><path fill="#3dd9eb" d="M25.023,26h-6.045c-2.136,0-3.954,1.613-4.291,3.804C16.512,31.766,19.109,33,22,33 s5.488-1.234,7.314-3.196C28.976,27.613,27.158,26,25.023,26z"/><path fill="#7debf5" d="M22,26.899L22,26.899c-2.239,0-4.124-1.673-4.391-3.896l-0.217-1.809C17.06,18.431,19.217,16,22,16 h0c2.783,0,4.94,2.431,4.608,5.194l-0.217,1.809C26.124,25.226,24.239,26.899,22,26.899z"/></svg>