<svg xmlns="http://www.w3.org/2000/svg"  viewBox="0 0 48 48" width="48px" height="48px"><path fill="#f5bc00" d="M24,46L24,46c-1.953-1.953-3.047-3.047-5-5V19.528C19,19.236,19.236,19,19.528,19h8.944 C28.764,19,29,19.236,29,19.528V41C27.047,42.953,25.953,44.047,24,46z"/><rect width="24" height="19" x="12" y="4" fill="#f5bc00"/><rect width="10" height="4" x="19" y="19" fill="#eb7900"/><rect width="12" height="4" x="18" y="9" fill="#fadb00"/><rect width="8" height="4" x="24" y="37" fill="#f5bc00"/><rect width="8" height="4" x="24" y="30" fill="#f5bc00"/><rect width="8" height="6" x="20" y="30" fill="#f5bc00"/><rect width="8" height="6" x="20" y="36" fill="#f5bc00"/><rect width="5" height="4" x="24" y="37" fill="#eb7900"/><rect width="5" height="4" x="24" y="30" fill="#eb7900"/></svg>